<?xml version="1.0" encoding="UTF-8" standalone="no"?>
<!-- Created with Inkscape (http://www.inkscape.org/) -->

<svg
   version="1.1"
   id="svg1"
   width="113.028"
   height="85"
   viewBox="0 0 113.028 84.999999"
   sodipodi:docname="Home.svg"
   xmlns:inkscape="http://www.inkscape.org/namespaces/inkscape"
   xmlns:sodipodi="http://sodipodi.sourceforge.net/DTD/sodipodi-0.dtd"
   xmlns="http://www.w3.org/2000/svg"
   xmlns:svg="http://www.w3.org/2000/svg">
  <sodipodi:namedview
     id="namedview1"
     pagecolor="#ffffff"
     bordercolor="#000000"
     borderopacity="0.25"
     inkscape:showpageshadow="2"
     inkscape:pageopacity="0.0"
     inkscape:pagecheckerboard="0"
     inkscape:deskcolor="#d1d1d1">
    <inkscape:page
       x="0"
       y="0"
       width="113.028"
       height="85"
       id="page2"
       margin="0"
       bleed="0" />
  </sodipodi:namedview>
  <defs
     id="defs1">
    <clipPath
       clipPathUnits="userSpaceOnUse"
       id="clipPath268">
      <path
         id="path269"
         style="fill:#ff0000;fill-opacity:1;fill-rule:nonzero;stroke:none"
         d="m 105.73633,19.478516 c -0.14567,0.07205 -0.28522,0.156 -0.43164,0.226562 -1.58522,0.793196 -3.18154,1.578542 -4.70117,2.492188 -1.667909,0.991654 -3.342035,1.972926 -5.023442,2.941406 -1.068536,0.614464 -2.147275,1.210175 -3.138672,1.947266 -0.709586,0.482253 -1.451529,0.928092 -2.103515,1.488281 -0.625595,0.522968 -1.254557,1.037525 -1.884766,1.554687 -0.67359,0.563732 -1.341565,1.136015 -1.992187,1.726563 -0.753587,0.665529 -0.503215,0.374139 -1.181641,1.125 -0.70096,0.775051 -1.377664,1.571807 -2.105469,2.322265 -0.849709,0.900177 -1.672021,1.825263 -2.507812,2.738282 -1.350358,1.459092 -2.723982,2.898036 -4.126954,4.30664 -1.51966,1.527035 -3.037431,3.056514 -4.554687,4.585938 -1.474294,1.478423 -2.973275,2.929994 -4.46875,4.386718 -0.868816,0.863147 -1.757903,1.710399 -2.5625,2.634766 -0.946987,1.08593 -1.864303,2.197908 -2.789063,3.302734 -1.371442,1.706838 -2.569442,3.540592 -3.796874,5.351563 -1.336822,1.997631 -2.665305,4.004043 -3.88086,6.078125 0.177353,-0.78813 0.08375,-0.360243 -0.01172,-0.107422 -0.396667,10.446818 -5.623497,15.84761 -11.052734,16.214844 -0.73263,2.888372 -1.448256,5.781293 -2.107422,8.6875 -1.049924,4.703895 -1.874485,9.456708 -2.671875,14.208988 -0.39351,2.33393 -0.702976,4.68127 -0.986328,7.03125 0.66019,-0.009 1.320407,-0.0175 1.980469,-0.0312 4.359974,-0.0637 8.720134,-0.0578 13.080078,-0.12891 4.598445,-0.0686 9.197641,-0.15539 13.791015,-0.39453 3.601012,-0.16955 7.202912,-0.37401 10.808594,-0.41211 2.727945,-0.038 5.455789,-0.0311 8.183594,-0.082 2.49682,-0.0471 4.993131,-0.11621 7.488281,-0.22071 2.666262,-0.0878 5.333705,-0.14069 7.99805,-0.2832 3.02233,-0.1238 6.04546,-0.21261 9.06445,-0.4082 2.59021,-0.13965 5.18066,-0.25086 7.77539,-0.22656 3.68673,-0.032 7.37429,-0.0748 11.06055,-0.14258 5.38589,-0.0971 10.7709,-0.21893 16.15625,-0.33203 0.0108,-0.0218 0.0185,-0.0426 0.0293,-0.0645 0.10266,-0.20667 0.24313,-0.49228 0.34765,-0.68945 0.0145,-0.0347 0.0303,-0.0689 0.0449,-0.10352 0.30324,-0.70216 0.62341,-1.39731 0.89844,-2.11132 0.43722,-1.02554 0.89372,-2.04199 1.26758,-3.09375 0.77913,-1.94633 1.6081,-3.87417 2.28711,-5.85938 0.85637,-2.375361 1.69593,-4.755653 2.40039,-7.181639 0.86701,-2.917349 1.64356,-5.862347 2.45703,-8.794922 1.09075,-3.989556 2.19609,-7.976341 3.08399,-12.017578 1.18754,-5.210363 2.28095,-10.440486 3.31445,-15.683593 0.5058,-2.46378 1.02533,-4.924823 1.56836,-7.38086 -0.40106,-0.287282 -0.796,-0.582995 -1.19922,-0.867187 -1.88021,-1.316393 -3.77262,-2.61589 -5.61719,-3.982422 -0.50239,-0.3698 -0.20674,-0.163086 -0.79297,-0.544922 -0.0769,-0.05006 -0.15377,-0.100051 -0.23047,-0.150391 -0.0243,-0.01595 -0.0895,-0.05562 -0.0723,-0.04883 -0.0443,-0.02155 -0.0886,-0.04286 -0.13281,-0.06445 -0.90624,-0.485235 -1.77954,-1.019308 -2.66797,-1.535156 -1.50076,-0.887072 -2.99382,-1.788006 -4.48828,-2.685547 -1.74472,-1.066283 -3.52026,-2.072826 -5.32032,-3.042969 -2.65161,-1.440006 -5.3637,-2.770872 -8.06054,-4.123047 -2.81888,-1.409457 -5.59615,-2.904926 -8.4375,-4.267578 -3.4123,-1.563302 -6.88278,-2.995523 -10.38086,-4.355469 -3.01539,-1.207972 -6.00343,-2.483764 -9.02149,-3.683593 -0.20203,-0.08032 -0.38712,-0.167406 -0.58398,-0.25 z" />
    </clipPath>
  </defs>
  <g
     id="g1"
     transform="translate(-35,-25)">
    <path
       style="fill:#000000"
       d="M 0,67.333336 C 0,0 0,0 106,0 c 106,0 106,0 106,67.333336 0,67.333334 0,67.333334 -106,67.333334 -106,0 -106,0 -106,-67.333334 z m 210.66667,0 c 0,-66.0000026 0,-66.0000026 -104.66667,-66.0000026 -104.6666667,0 -104.6666667,0 -104.6666667,66.0000026 0,66.000004 0,66.000004 104.6666667,66.000004 104.66667,0 104.66667,0 104.66667,-66.000004 z M 72,83.4219 C 72,58.843795 72,58.843795 68.667743,58.421899 64.653106,57.913606 103.35579,26.666668 108,26.666668 c 4.61444,0 43.34929,31.246449 39.362,31.75236 -3.30251,0.419026 -3.30251,0.419026 -3.66559,24.666668 -0.36308,24.247644 -0.36308,24.247644 -10.24559,24.643744 -12.06194,0.48346 -12.07052,0.47294 -12.09707,-14.832001 -0.0248,-14.27798 -3.52501,-19.564103 -12.95451,-19.564103 -10.60987,0 -15.065907,7.085804 -15.065907,23.957176 C 93.333333,108 93.333333,108 82.666667,108 72,108 72,108 72,83.4219 Z"
       id="path281"
       clip-path="url(#clipPath268)"
       transform="translate(-14.714285,1.3333326)" />
  </g>
</svg>
